<?xml version="1.0" encoding="UTF-8" standalone="no"?>
<!-- Created with Inkscape (http://www.inkscape.org/) -->

<svg
   width="154.10199mm"
   height="152.2598mm"
   viewBox="0 0 154.10199 152.2598"
   version="1.1"
   id="svg1"
   xmlns="http://www.w3.org/2000/svg"
   xmlns:svg="http://www.w3.org/2000/svg">
  <defs
     id="defs1" />
  <g
     id="layer1"
     transform="translate(-28.215635,-47.905455)">
    <path
       style="font-weight:bold;font-size:27.8151px;line-height:0;font-family:'FiraCode Nerd Font';-inkscape-font-specification:'FiraCode Nerd Font Bold';letter-spacing:4.01179px;word-spacing:5.34905px;white-space:pre;fill:#eff1f5;fill-opacity:1;fill-rule:evenodd;stroke-width:0.265"
       d="m 32.596029,135.01287 -0.638126,-5.75597 -4.353741,-0.56499 -0.539106,-4.8628 20.316114,3.83273 0.625552,5.64255 -18.983279,8.1896 -0.551681,-4.97623 z m 2.817795,-5.39282 0.471522,4.25318 8.454905,-3.09007 z m -1.704693,24.75047 12.8066,-10.77269 q -0.732636,0.43358 -1.899125,1.08808 -1.153259,0.64917 -2.605683,1.35736 -1.447095,0.72142 -3.06124,1.37174 l -6.919654,2.78784 -1.487204,-3.69136 18.337745,-7.38805 2.180167,5.41136 -12.785852,10.59517 q 1.171628,-0.71809 3.039153,-1.73192 1.867525,-1.01383 4.341665,-2.01063 l 7.0255,-2.83049 1.487204,3.69136 -18.337745,7.38805 z m 24.173249,8.95313 -12.833616,9.86952 -2.852161,-3.70875 12.833616,-9.86952 -3.382593,-4.39848 2.838095,-2.1826 9.756478,12.68662 -3.133746,1.79816 z m 13.018533,19.65584 q -1.880707,2.5121 -4.002064,3.8462 -2.112809,1.32267 -4.30665,1.30173 -2.173875,-0.0238 -4.252069,-1.57966 -2.066776,-1.54731 -2.730405,-3.61219 -0.655081,-2.0763 0.01898,-4.4761 0.674058,-2.39981 2.597509,-4.969 1.880708,-2.51211 3.993517,-3.83478 2.112808,-1.32267 4.298101,-1.29032 2.193842,0.0209 4.260617,1.56825 2.078195,1.55586 2.730406,3.61219 0.663629,2.06487 -0.01043,4.46468 -0.674059,2.3998 -2.59751,4.969 z m -3.836666,-2.87235 q 2.18846,-2.92318 2.597754,-4.68372 0.409295,-1.76055 -0.926687,-2.76074 -1.335982,-1.0002 -2.918528,-0.1002 -1.573997,0.88858 -3.753908,3.80034 -2.18846,2.92317 -2.586336,4.69227 -0.397876,1.76909 0.915269,2.75219 1.370238,1.02584 2.929946,0.10874 1.579676,-0.91996 3.74249,-3.80888 z m 11.290942,16.77393 0.898266,-16.71087 q -0.184691,0.83104 -0.504891,2.12971 -0.315041,1.28537 -0.791614,2.82938 -0.463274,1.54916 -1.092665,3.17158 l -2.698129,6.95513 -3.710287,-1.43935 7.150299,-18.43175 5.439095,2.11001 -1.013596,16.57433 q 0.277324,-1.34591 0.814773,-3.40179 0.537449,-2.05588 1.502172,-4.5427 l 2.739401,-7.06152 3.710287,1.43935 -7.1503,18.43175 z m 27.500641,-14.67758 -0.33319,3.40714 -4.06017,-0.39704 -1.25639,12.84775 4.06017,0.39704 -0.33458,3.42134 -12.776765,-1.24945 0.334575,-3.42134 4.060173,0.39705 1.256391,-12.84775 -4.060173,-0.39705 0.333186,-3.40713 z m 18.80692,7.10716 q 0.54668,3.09012 0.0693,5.55022 -0.47985,2.44605 -1.99544,4.03237 -1.50401,1.56978 -4.06039,2.02203 -2.54233,0.44977 -4.50271,-0.47815 -1.96286,-0.94197 -3.2528,-3.07492 -1.28994,-2.13295 -1.84904,-5.29331 -0.54668,-3.09012 -0.0668,-5.53617 0.47986,-2.44605 1.99793,-4.01832 1.51558,-1.58632 4.05791,-2.03608 2.55637,-0.45226 4.5027,0.47815 1.96038,0.92792 3.25032,3.06087 1.28994,2.13296 1.84904,5.29331 z m -4.71946,0.83493 q -0.63614,-3.59578 -1.64073,-5.09839 -1.0046,-1.50261 -2.64798,-1.21187 -1.64339,0.29073 -2.069,2.06084 -0.4281,1.75607 0.20555,5.33781 0.63614,3.59578 1.65478,5.0959 1.01864,1.50012 2.63393,1.21436 1.68553,-0.29819 2.08305,-2.06333 0.40908,-1.78168 -0.2196,-5.33532 z m 26.94661,-26.89089 q 1.49702,-1.50866 2.94694,-2.1598 1.44983,-0.67131 3.05295,-0.82881 l 0.3467,3.57931 q -1.04857,0.10492 -2.0152,0.53229 -0.97676,0.41732 -1.79058,1.23746 -0.8741,0.88089 -1.09124,2.11227 -0.22726,1.22132 0.42412,2.73175 0.64124,1.50039 2.36253,3.2084 2.53131,2.51179 4.58983,2.74589 2.05844,0.21393 3.48513,-1.22385 1.04491,-1.05302 1.34328,-2.1435 0.29836,-1.09048 0.41534,-2.13991 l 3.42082,0.4003 q -0.004,1.56339 -0.59253,3.27026 -0.58848,1.70687 -2.20607,3.33703 -1.88887,1.90355 -4.19614,2.54792 -2.30736,0.62419 -4.78156,-0.16305 -2.47428,-0.80742 -4.88408,-3.19864 -2.34905,-2.33093 -3.13533,-4.81922 -0.77624,-2.4984 -0.14982,-4.83077 0.61628,-2.34242 2.45491,-4.19533 z m 11.75355,-16.6164 2.98951,1.66807 -1.98779,3.56249 11.27292,6.29003 1.98779,-3.56249 3.00196,1.67502 -6.25528,11.21064 -3.00196,-1.67502 1.98779,-3.56249 -11.27292,-6.29003 -1.98779,3.56249 -2.9895,-1.66807 z m 2.4878,-10.73521 q 0.4977,-2.06626 1.39978,-3.37487 0.89156,-1.32582 2.18063,-2.2918 l 2.15251,2.88068 q -0.84216,0.63346 -1.44706,1.50013 -0.61877,0.86333 -0.88933,1.9866 -0.2906,1.20647 0.16227,2.37195 0.43901,1.16213 1.77921,2.11584 1.32632,0.95037 3.6838,1.51821 3.46688,0.83507 5.3484,-0.0322 1.87099,-0.8845 2.34531,-2.85368 0.34739,-1.44223 0.037,-2.52935 -0.31036,-1.08713 -0.75453,-2.0451 l 3.13253,-1.43161 q 0.80726,1.33886 1.18918,3.10347 0.38193,1.76461 -0.15585,3.99729 -0.62797,2.60709 -2.26665,4.35451 -1.64921,1.7302 -4.17299,2.34009 -2.5343,0.59267 -5.83477,-0.20231 -3.21727,-0.77493 -5.17988,-2.49479 -1.95928,-1.73373 -2.63313,-4.05284 -0.68773,-2.32244 -0.0765,-4.8602 z m 5.0457,-12.78292 4.74684,-0.17198 -0.2479,-6.8423 3.2786,-0.11878 0.2479,6.84229 5.04619,-0.18282 -0.29903,-8.25352 3.34987,-0.12136 0.46843,12.92908 -19.75712,0.7158 -0.46791,-12.91482 3.35266,0.34955 z m -2.61964,-25.496524 q 2.02483,-0.645919 3.63978,0.05167 1.60137,0.701923 2.72934,2.078887 l 6.37621,-7.468957 1.6083,5.041682 -5.9019,6.374392 0.40316,1.26382 7.2024,-2.29756 1.42189,4.45733 -18.83497,6.00835 -1.89007,-5.925 q -1.22681,-3.84581 -0.45134,-6.2492 0.77547,-2.403382 3.6972,-3.335412 z m 1.46524,4.593234 q -1.35895,0.4335 -1.71471,1.43035 -0.37368,0.9876 0.12485,2.55039 l 0.47252,1.48125 5.44936,-1.73835 -0.52887,-1.65791 q -0.46385,-1.45407 -1.38608,-1.99833 -0.92223,-0.54426 -2.41707,-0.0674 z m -7.77364,-21.860868 q 2.62254,-1.723368 5.07104,-2.25706 2.43657,-0.525858 4.4927,0.239454 2.03638,0.761225 3.46208,2.930783 1.41786,2.157636 1.34019,4.325144 -0.0896,2.17534 -1.53914,4.2032 -1.44955,2.02786 -4.1317,3.790395 -2.62254,1.723368 -5.05911,2.249227 -2.43658,0.525858 -4.48079,-0.247288 -2.05613,-0.765312 -3.47399,-2.922949 -1.4257,-2.169557 -1.3402,-4.325144 0.0777,-2.167507 1.52722,-4.195366 1.44955,-2.02786 4.1317,-3.790396 z m 2.63205,4.005337 q -3.05168,2.005374 -4.03497,3.522012 -0.98329,1.516638 -0.0668,2.911353 0.91652,1.394715 2.71074,1.08615 1.78231,-0.300732 4.82207,-2.298272 3.05169,-2.005374 4.02714,-3.533933 0.97545,-1.528558 0.0746,-2.899432 -0.94002,-1.430478 -2.71857,-1.098071 -1.79831,0.32832 -4.81424,2.310193 z m -30.60011,-29.455927 5.38825,2.122527 2.53197,-3.586561 4.55215,1.793169 -12.87301,16.17776 -5.28209,-2.080704 1.61873,-20.611017 4.65832,1.834992 z m 3.45389,5.009309 -3.98147,-1.56837 -1.21396,8.919654 z m -18.15405,-9.015557 -9.36475,-0.964882 0.864,-3.653626 14.35928,1.479485 -0.35818,3.476308 -10.63457,11.637886 8.31476,0.856697 -0.36987,3.589821 -13.60727,-1.402002 0.3611,-3.504686 z m -18.612905,12.794098 -0.803186,-4.681556 -6.748188,1.157745 -0.554753,-3.233507 6.748189,-1.157745 -0.853837,-4.976789 -8.140002,1.39653 -0.566813,-3.3038 12.751264,-2.187656 3.342991,19.485394 -12.737208,2.185243 -0.100463,-3.369337 z m -22.585909,-6.302082 3.53741,16.160195 -4.331149,2.052212 -3.309245,-20.309098 5.233471,-2.479757 13.595724,15.435095 -4.485833,2.125506 z m -7.419424,19.788489 -3.114407,-3.586438 -5.169641,4.489236 -2.151092,-2.47712 5.169641,-4.489235 -3.310812,-3.81261 -6.235878,5.415141 -2.197855,-2.53097 9.768466,-8.482785 12.962668,14.927336 -9.757696,8.473433 -1.83309,-2.828835 z M 44.4041,93.455975 q -2.512327,-1.657314 -3.703698,-3.40017 -1.199226,-1.730948 -1.369863,-3.466892 -0.15873,-1.728091 0.422563,-3.412301 0.573439,-1.672304 1.586678,-3.208276 l 2.93761,-4.453131 16.502778,10.886434 -2.7491,4.167368 q -1.044658,1.5836 -2.352014,2.840111 -1.303304,1.276273 -2.954152,1.861898 -1.646797,0.605386 -3.709775,0.235611 -2.051072,-0.36192 -4.611027,-2.050652 z m 2.670554,-4.048301 q 2.226566,1.468805 3.691652,1.734666 1.457233,0.277768 2.411883,-0.28865 0.958702,-0.546657 1.64205,-1.582546 l 0.549819,-0.833473 -10.847064,-7.155514 -0.54982,0.833474 q -0.714765,1.083516 -0.792367,2.211411 -0.06569,1.13575 0.830561,2.393425 0.896255,1.257675 3.063286,2.687207 z m -8.789218,21.572366 q -2.987985,-0.95899 -4.940771,-2.52953 -1.939204,-1.56618 -2.63462,-3.64699 -0.686193,-2.06287 0.107156,-4.53475 0.78899,-2.458296 2.524707,-3.758835 1.7493,-1.296181 4.237746,-1.441304 2.488446,-0.145124 5.54434,0.835665 2.987985,0.958993 4.927189,2.525171 1.939205,1.566177 2.621039,3.642633 0.695416,2.08081 -0.09357,4.5391 -0.793349,2.47188 -2.524708,3.75884 -1.735717,1.30054 -4.224164,1.44566 -2.488446,0.14513 -5.54434,-0.83566 z m 1.464645,-4.56347 q 3.476928,1.11592 5.274723,0.9289 1.797795,-0.18702 2.307805,-1.77608 0.510011,-1.58907 -0.856742,-2.79175 -1.353171,-1.19832 -4.816518,-2.30988 -3.476928,-1.115915 -5.279082,-0.915315 -1.802154,0.2006 -2.303446,1.762505 -0.523087,1.62981 0.852384,2.80532 1.384693,1.19346 4.820876,2.2963 z"
       id="text1"
       transform="matrix(0.69165985,-0.7050071,0.70734304,0.69395156,-55.289542,111.73136)"
       aria-label="ANTONIO CICERO AZEVEDO" />
  </g>
</svg>
